HIERARCHY
ROOT Hips
{
 OFFSET 0.000000 0.000000 0.000000
 CHANNELS 6 Xposition Yposition Zposition Yrotation Xrotation Zrotation
 JOINT Chest
 {
  OFFSET 0.000000 9.585900 0.002600
  CHANNELS 3 Yrotation Xrotation Zrotation
  JOINT Chest2
  {
   OFFSET 0.000000 9.601200 -0.005300
   CHANNELS 3 Yrotation Xrotation Zrotation
   JOINT Chest3
   {
    OFFSET 0.000000 9.561800 0.000000
    CHANNELS 3 Yrotation Xrotation Zrotation
    JOINT Chest4
    {
     OFFSET 0.000000 9.552100 0.000000
     CHANNELS 3 Yrotation Xrotation Zrotation
     JOINT Neck
     {
      OFFSET 0.000000 14.453000 0.000000
      CHANNELS 3 Yrotation Xrotation Zrotation
      JOINT Head
      {
       OFFSET 0.000000 8.936500 -0.011300
       CHANNELS 3 Yrotation Xrotation Zrotation
       End Site
       {
        OFFSET 0.000000 17.073600 -0.006000
       }
      }
     }
     JOINT RightCollar
     {
      OFFSET -2.921100 9.558500 0.000000
      CHANNELS 3 Yrotation Xrotation Zrotation
      JOINT RightShoulder
      {
       OFFSET -13.519700 0.000000 0.000000
       CHANNELS 3 Yrotation Xrotation Zrotation
       JOINT RightElbow
       {
        OFFSET 0.000000 -29.696600 0.000000
        CHANNELS 3 Yrotation Xrotation Zrotation
        JOINT RightWrist
        {
         OFFSET 0.000000 -24.004700 0.000000
         CHANNELS 3 Yrotation Xrotation Zrotation
         End Site
         {
          OFFSET 0.000000 -17.728500 0.000000
         }
        }
       }
      }
     }
     JOINT LeftCollar
     {
      OFFSET 2.921100 9.558500 0.000000
      CHANNELS 3 Yrotation Xrotation Zrotation
      JOINT LeftShoulder
      {
       OFFSET 13.519700 0.000000 0.000000
       CHANNELS 3 Yrotation Xrotation Zrotation
       JOINT LeftElbow
       {
        OFFSET 0.000000 -29.696600 0.000000
        CHANNELS 3 Yrotation Xrotation Zrotation
        JOINT LeftWrist
        {
         OFFSET 0.000000 -24.004700 0.000000
         CHANNELS 3 Yrotation Xrotation Zrotation
         End Site
         {
          OFFSET 0.000000 -17.728500 0.000000
         }
        }
       }
      }
     }
    }
   }
  }
 }
 JOINT RightHip
 {
  OFFSET -7.771700 -0.012900 -0.001300
  CHANNELS 3 Yrotation Xrotation Zrotation
  JOINT RightKnee
  {
   OFFSET 0.000000 -40.869800 0.001200
   CHANNELS 3 Yrotation Xrotation Zrotation
   JOINT RightAnkle
   {
    OFFSET 0.000000 -39.717900 0.002100
    CHANNELS 3 Yrotation Xrotation Zrotation
    JOINT RightToe
    {
     OFFSET 0.000000 -4.965400 11.033500
     CHANNELS 3 Yrotation Xrotation Zrotation
     End Site
     {
      OFFSET 0.000000 -1.423100 5.872300
     }
    }
   }
  }
 }
 JOINT LeftHip
 {
  OFFSET 7.771700 -0.012900 -0.001300
  CHANNELS 3 Yrotation Xrotation Zrotation
  JOINT LeftKnee
  {
   OFFSET 0.000000 -40.869800 0.001200
   CHANNELS 3 Yrotation Xrotation Zrotation
   JOINT LeftAnkle
   {
    OFFSET 0.000000 -39.717900 0.002100
    CHANNELS 3 Yrotation Xrotation Zrotation
    JOINT LeftToe
    {
     OFFSET 0.000000 -4.965400 11.033500
     CHANNELS 3 Yrotation Xrotation Zrotation
     End Site
     {
      OFFSET 0.000000 -1.423100 5.872300
     }
    }
   }
  }
 }
}
MOTION
Frames: 6
Frame Time: 0.008333
-30.796434 57.793423 12.521672 177.351499 -44.197307 -2.451841 3.800299 21.852316 2.737437 1.972156 12.445358 1.392751 2.526350 15.554179 1.818044 1.969003 12.475859 1.392095 -2.202153 16.782086 -0.346886 -3.957683 -4.611622 0.118997 4.457304 0.305939 1.315883 8.155065 -19.266969 -14.391857 -66.187796 -41.884039 132.155047 7.441349 9.407562 12.749940 -8.713697 -3.283932 -2.229243 -7.095126 -18.707461 14.404912 62.587068 -45.158882 -121.824235 0.663505 5.680251 -13.682750 3.483849 -27.580150 -4.070168 -37.483178 73.282322 -41.983369 6.428977 -13.560524 12.115744 0.057000 -0.035226 0.028764 -5.215524 -24.789479 5.257003 89.602959 82.929734 89.901535 1.207245 -22.553183 -17.457863 -0.036143 0.080019 -0.007207
-30.796309 57.794296 12.525466 177.357599 -44.262478 -2.446995 3.798236 21.855913 2.734625 1.970355 12.426331 1.392511 2.522614 15.568911 1.817509 1.966685 12.475009 1.390610 -2.189516 16.782674 -0.353910 -3.940408 -4.595198 0.108579 4.469470 0.318446 1.313949 8.133546 -19.225193 -14.370039 -66.188587 -41.904045 132.165190 7.351866 9.396149 12.673564 -8.700287 -3.269812 -2.222627 -7.092390 -18.681378 14.386999 62.429129 -45.091963 -121.724229 0.739212 5.659153 -13.636036 3.478614 -27.516332 -4.076284 -37.467658 73.286168 -41.968677 6.433108 -13.568795 12.110535 0.051128 -0.039546 0.026858 -5.218154 -24.724237 5.255494 89.586759 82.931028 89.866576 1.195565 -22.551187 -17.448057 -0.034007 0.079622 -0.007716
-30.794916 57.795224 12.529394 177.369072 -44.326597 -2.453474 3.797207 21.789088 2.747677 1.964457 12.473997 1.389368 2.519533 15.584175 1.816509 1.962622 12.509134 1.394294 -2.176915 16.749440 -0.364760 -3.942748 -4.543934 0.113249 4.480330 0.298465 1.303233 8.093325 -19.216130 -14.345387 -66.135561 -41.885849 132.129810 7.228852 9.380873 12.566819 -8.688064 -3.291432 -2.218244 -7.092360 -18.652185 14.370523 62.257070 -45.016882 -121.610852 0.811178 5.639703 -13.592179 3.466131 -27.453587 -4.074408 -37.454710 73.289581 -41.955677 6.436913 -13.574505 12.106041 0.045731 -0.043164 0.024504 -5.230699 -24.662506 5.274489 89.609964 82.949427 89.871793 1.177422 -22.547044 -17.441102 -0.022882 0.073065 -0.001781
-30.794723 57.796168 12.533146 177.382532 -44.390526 -2.453824 3.795949 21.786244 2.749915 1.962898 12.472251 1.388361 2.517552 15.581983 1.815206 1.955218 12.546076 1.400192 -2.162933 16.714196 -0.377286 -3.922844 -4.537444 0.100428 4.489138 0.277284 1.292707 8.059126 -19.242017 -14.327610 -66.057411 -41.851548 132.054513 7.126624 9.361545 12.495513 -8.663448 -3.361419 -2.222425 -7.104625 -18.598806 14.359418 62.042567 -44.918809 -121.458705 0.881474 5.622944 -13.553602 3.455117 -27.390236 -4.082459 -37.411466 73.299082 -41.906413 6.427019 -13.578182 12.090762 0.046745 -0.045280 0.026457 -5.236482 -24.599848 5.274740 89.585206 82.952061 89.827252 1.163068 -22.542207 -17.427715 -0.023242 0.072716 -0.001106
-30.796336 57.796745 12.536992 177.403799 -44.451305 -2.448679 3.788683 21.780409 2.741963 1.961590 12.469796 1.387820 2.515846 15.578855 1.814450 1.951016 12.544806 1.399024 -2.151752 16.718067 -0.382187 -3.906783 -4.530988 0.087628 4.485165 0.322063 1.303868 8.048983 -19.250557 -14.317790 -66.020129 -41.838916 132.015117 7.086282 9.350317 12.465037 -8.666274 -3.311520 -2.220451 -7.101595 -18.628400 14.357224 61.805976 -44.807409 -121.285081 0.949967 5.606884 -13.526452 3.446407 -27.327832 -4.101985 -37.390350 73.301710 -41.885900 6.433417 -13.584705 12.084425 0.043793 -0.045182 0.026959 -5.243129 -24.540661 5.259980 89.484272 82.953887 89.705936 1.150826 -22.529770 -17.411653 -0.018483 0.072135 -0.003409
-30.796966 57.794917 12.543277 177.415627 -44.491495 -2.443739 3.792047 21.752529 2.740907 1.960886 12.466441 1.387493 2.506297 15.613432 1.816913 1.953274 12.506692 1.392683 -2.139609 16.720795 -0.388252 -3.865642 -4.565806 0.055942 4.479447 0.367880 1.317214 8.043855 -19.248659 -14.309858 -65.996754 -41.828713 131.977446 6.974712 9.328141 12.398744 -8.671571 -3.259531 -2.218965 -7.083880 -18.688740 14.360481 61.513091 -44.661546 -121.064494 1.012109 5.591178 -13.512819 3.440616 -27.288772 -4.113301 -37.380559 73.303071 -41.877729 6.440590 -13.592036 12.080292 0.038718 -0.039221 0.026590 -5.244530 -24.502856 5.247066 89.433036 82.954987 89.643817 1.149841 -22.526920 -17.403330 -0.020203 0.077111 -0.005029
